Language: English
Genre:Animation | Comedy | Family
IMDB:http://www.imdb.com/title/tt1535375/
Source:DVDR-KART3LDV

General
Complete name : The Penguins Of Madagascar I Was A Penguin Zombie 2010.DvDRip.H264.Feel-Free
Format : MPEG-4
Format profile : Base Media
Codec ID : isom
File size : 744 MiB
Duration : 1h 33mn
Overall bit rate : 1 109 Kbps
Video #2
Codec ID : avc1
Codec ID/Info : Advanced Video Coding
Duration : 1h 33mn
Bit rate mode : Variable
Bit rate : 941 Kbps
Width : 720 pixels
Height : 384 pixels
Display aspect ratio : 1.875
Frame rate mode : Constant
Frame rate : 23.976 fps
Original frame rate : 23.000 fps
Resolution : 24 bits
Colorimetry : 4:2:0
Scan type : Progressive
Bits/(Pixel*Frame) : 0.142
Stream size : 632 MiB (85%)
Audio #1
ID : 1
Format : AAC
Format/Info : Advanced Audio Codec
Format version : Version 4
Format profile : LC
Format settings, SBR : No
Codec ID : 40
Duration : 1h 33mn
Bit rate mode : Constant
Bit rate : 160 Kbps
Channel(s) : 2 channels
Channel positions : L R
Sampling rate : 48.0 KHz
Resolution : 16 bits
Stream size : 107 MiB (14%)